<svg width="27" height="25" viewBox="0 0 27 25" fill="none" xmlns="http://www.w3.org/2000/svg">
<g clip-path="url(#clip0_203_1044)">
<path fill-rule="evenodd" clip-rule="evenodd" d="M25 8.06678H23.7179V5.58469C23.7179 4.90026 23.1429 4.34365 22.4359 4.34365H14.1026C13.9526 4.34365 13.8077 4.29277 13.6923 4.20031L10.0244 1.24104H2.5641C1.85705 1.24104 1.28205 1.79765 1.28205 2.48209V6.82574H25V8.06678H1.28205H0V2.48209C0 1.11322 1.15 0 2.5641 0H10.2564C10.4064 0 10.5513 0.0508828 10.6667 0.14334L14.3346 3.10261H22.4359C23.85 3.10261 25 4.21582 25 5.58469V8.06678Z" fill="#5D5FEF"/>
<path d="M25 8.06678H23.7179V5.58469C23.7179 4.90026 23.1429 4.34365 22.4359 4.34365H14.1026C13.9526 4.34365 13.8077 4.29277 13.6923 4.20031L10.0244 1.24104H2.5641C1.85705 1.24104 1.28205 1.79765 1.28205 2.48209V6.82574H25V8.06678H1.28205H0V2.48209C0 1.11322 1.15 0 2.5641 0H10.2564C10.4064 0 10.5513 0.0508828 10.6667 0.14334L14.3346 3.10261H22.4359C23.85 3.10261 25 4.21582 25 5.58469V8.06678Z" stroke="white" stroke-width="0.2"/>
<rect y="6" width="27" height="18" rx="2" fill="#A5A6F6" stroke="#5D5FEF"/>
<path d="M13.6713 19V12.708C13.6713 12.5607 13.6713 12.4047 13.6713 12.24C13.68 12.0667 13.6886 11.889 13.6973 11.707C13.4026 11.993 13.0603 12.2443 12.6703 12.461C12.2803 12.669 11.8816 12.8207 11.4743 12.916L11.2013 11.967C11.3573 11.9497 11.5523 11.8933 11.7863 11.798C12.029 11.694 12.2803 11.5683 12.5403 11.421C12.809 11.265 13.056 11.1003 13.2813 10.927C13.5066 10.7537 13.68 10.5847 13.8013 10.42H14.7113V19H13.6713Z" fill="white"/>
</g>
<defs>
<clipPath id="clip0_203_1044">
<rect width="27" height="25" fill="white"/>
</clipPath>
</defs>
</svg>
